<?xml version="1.0" encoding="UTF-8"?>
<!DOCTYPE svg PUBLIC "-//W3C//DTD SVG 1.1//EN" "http://www.w3.org/Graphics/SVG/1.1/DTD/svg11.dtd">
<svg version="1.1" xmlns="http://www.w3.org/2000/svg" xmlns:xlink="http://www.w3.org/1999/xlink" x="0" y="0" width="1400" height="700" viewBox="0, 0, 1400, 700">
  <g id="Layer_1">
    <g>
      <path d="M514.371,113.794 L1294.371,113.794 L1294.371,563.794 L514.371,563.794 L514.371,113.794 z" fill="#FFFFFF"/>
      <path d="M514.371,113.794 L1294.371,113.794 L1294.371,563.794 L514.371,563.794 L514.371,113.794 z" fill-opacity="0" stroke="#607D8B" stroke-width="1"/>
    </g>
    <path d="M693.66,173.896 L1283.66,173.896 L1283.66,503.896 L693.66,503.896 L693.66,173.896 z" fill="#607D8B"/>
    <text transform="matrix(1, 0, 0, 1, 571.455, 92.794)">
      <tspan x="-36.784" y="6.5" font-family="Verdana" font-size="18" fill="#607D8B">Screen</tspan>
    </text>
    <text transform="matrix(1, 0, 0, 1, 988.66, 332.149)">
      <tspan x="-60.269" y="1" font-family="Verdana" font-size="14" fill="#ECEFF1">Mimic Diagram</tspan>
    </text>
    <path d="M524.713,172.655 L684.713,172.655 L684.713,502.655 L524.713,502.655 L524.713,172.655 z" fill="#607D8B"/>
    <text transform="matrix(1, 0, 0, 1, 603.932, 332.149)">
      <tspan x="-65.49" y="-3.5" font-family="Verdana" font-size="14" fill="#ECEFF1">Widgdet 3 (Menu)</tspan>
    </text>
    <path d="M524.713,122.649 L684.713,122.649 L684.713,162.649 L524.713,162.649 L524.713,122.649 z" fill="#607D8B"/>
    <text transform="matrix(1, 0, 0, 1, 574.95, 140.149)">
      <tspan x="-39.909" y="5" font-family="Verdana" font-size="14" fill="#ECEFF1">Widget</tspan>
      <tspan x="9.077" y="5" font-family="Verdana" font-size="14" fill="#ECEFF1"> 1 (</tspan>
    </text>
    <text transform="matrix(1, 0, 0, 1, 634.376, 140.149)">
      <tspan x="-20.517" y="5" font-family="Verdana" font-size="14" fill="#ECEFF1">Logo</tspan>
    </text>
    <text transform="matrix(1, 0, 0, 1, 656.239, 140.149)">
      <tspan x="-3.679" y="5" font-family="Verdana" font-size="14" fill="#ECEFF1">)</tspan>
    </text>
    <path d="M693.66,122.649 L1283.66,122.649 L1283.66,162.649 L693.66,162.649 L693.66,122.649 z" fill="#607D8B"/>
    <g>
      <text transform="matrix(1, 0, 0, 1, 907.381, 140.149)">
        <tspan x="-34.27" y="5" font-family="Verdana" font-size="14" fill="#ECEFF1">Widget 2</tspan>
      </text>
      <text transform="matrix(1, 0, 0, 1, 1014.53, 140.149)">
        <tspan x="-73.88" y="5" font-family="Verdana" font-size="14" fill="#ECEFF1"> (State Bar)</tspan>
      </text>
    </g>
    <path d="M524.713,514.996 L1283.66,514.996 L1283.66,554.996 L524.713,554.996 L524.713,514.996 z" fill="#607D8B"/>
    <text transform="matrix(1, 0, 0, 1, 905.584, 536.496)">
      <tspan x="-34.27" y="5" font-family="Verdana" font-size="14" fill="#ECEFF1">Widget 4</tspan>
    </text>
    <g>
      <text transform="matrix(1, 0, 0, 1, 158.476, 200.276)">
        <tspan x="-122.357" y="5" font-family="Verdana-Bold" font-size="14" fill="#607D8B">Control Buttons</tspan>
        <tspan x="1.161" y="5" font-family="Verdana-Bold" font-size="14" fill="#607D8B"> </tspan>
      </text>
      <g>
        <g>
          <path d="M59.356,445.452 L59.356,464.849 L39.959,464.849 L39.959,445.452 L59.356,445.452 z M41.274,446.767 L41.274,463.534 L58.041,463.534 L58.041,446.767 L41.274,446.767 z" fill="#607D8B"/>
          <path d="M35.356,460.247 L35.356,440.849 L54.753,440.849 L54.753,443.973 L53.438,443.973 L53.438,443.97 L38.642,443.97 L38.642,460.247 L35.356,460.247 z" fill="#607D8B"/>
          <path d="M55.684,458.107 L49.29,462.384 L48.16,459.354 L47.988,459.469 C47.988,459.469 46.943,457.906 46.881,457.814 C46.819,457.721 46.391,457.305 46.805,456.659 C47.31,455.872 47.72,455.126 46.883,453.875 C46.047,452.625 44.644,451.94 44.047,451.048 C43.452,450.158 43.419,448.956 44.451,448.267 L44.485,448.244 C45.516,447.554 46.614,448.043 47.21,448.933 C47.806,449.825 47.903,451.384 48.74,452.634 C49.576,453.884 50.428,453.758 51.343,453.624 C52.112,453.511 52.318,454.042 52.381,454.135 C52.443,454.228 53.488,455.79 53.488,455.79 L53.316,455.905 L55.684,458.107 z M54.422,458.266 L52.55,456.434 L48.992,458.814 L49.919,461.277 L54.422,458.266 z M52.425,455.764 L51.961,455.069 L47.905,457.782 L48.369,458.477 L52.425,455.764 z" fill="#607D8B"/>
        </g>
        <text transform="matrix(1, 0, 0, 1, 136.308, 451.424)">
          <tspan x="-65.479" y="5" font-family="Verdana" font-size="14" fill="#607D8B">Copy Style</tspan>
        </text>
      </g>
      <g>
        <g>
          <path d="M59.356,484.067 L59.356,503.464 L39.959,503.464 L39.959,484.067 L59.356,484.067 z M46.427,486.683 C45.512,486.82 45.887,486.677 45.268,487.003 L45.234,487.026 C44.203,487.716 44.236,488.917 44.831,489.807 C45.427,490.699 46.831,491.385 47.667,492.635 C48.503,493.885 48.094,494.631 47.589,495.418 C47.175,496.064 47.602,496.48 47.664,496.573 C47.727,496.666 48.772,498.228 48.772,498.228 L48.943,498.113 L50.074,501.143 L56.468,496.867 L54.099,494.665 L54.271,494.55 C54.271,494.55 53.226,492.987 53.164,492.895 C53.102,492.802 52.896,492.27 52.126,492.384 C51.211,492.517 50.359,492.644 49.523,491.393 C48.687,490.143 48.59,488.584 47.993,487.692 C47.522,486.999 47.182,486.914 46.427,486.683 z M52.744,493.829 L53.209,494.523 L49.153,497.236 L48.688,496.542 L52.744,493.829 z" fill="#607D8B"/>
          <path d="M36.671,480.779 L36.671,497.547 L38.505,497.547 L38.505,498.862 L35.356,498.862 L35.356,479.464 L54.753,479.464 L54.753,482.588 L53.438,482.588 L53.438,480.779 L36.671,480.779 z" fill="#607D8B"/>
        </g>
        <text transform="matrix(1, 0, 0, 1, 133.379, 490.039)">
          <tspan x="-62.55" y="5" font-family="Verdana" font-size="14" fill="#607D8B">Paste Style</tspan>
        </text>
      </g>
      <g>
        <path d="M56.118,338.957 L47.547,338.957 L47.547,347.528 L44.69,347.528 L44.69,338.957 L36.118,338.957 L36.118,336.1 L44.69,336.1 L44.69,327.528 L47.547,327.528 L47.547,336.1 L56.118,336.1 L56.118,338.957 z" fill="#607D8B"/>
        <text transform="matrix(1, 0, 0, 1, 106.175, 336.103)">
          <tspan x="-34.584" y="5" font-family="Verdana" font-size="14" fill="#607D8B">Add</tspan>
        </text>
      </g>
      <g>
        <g>
          <path d="M52.283,359.059 L52.283,361.662 L51.187,361.662 L51.187,361.66 L38.856,361.66 L38.856,363.763 C38.322,363.194 38.634,363.534 37.931,362.733 L37.931,362.733 C37.902,364.635 38.102,366.588 38.856,368.352 L38.856,375.224 L36.118,375.224 L36.118,359.059 L52.283,359.059 z" fill="#607D8B"/>
          <path d="M56.118,362.895 L56.118,379.059 L39.954,379.059 L39.954,371.457 C40.538,371.993 40.181,371.686 41.05,372.344 L41.05,377.963 L55.022,377.963 L55.022,363.991 L41.05,363.991 L41.05,364.608 C40.015,363.921 40.369,364.183 39.954,363.873 L39.954,362.895 L56.118,362.895 z" fill="#607D8B"/>
          <path d="M38.299,363.991 C43.691,369.389 46.403,368.456 46.403,368.456 L46.403,366.256 L50.102,370.819 L46.403,375.381 L46.403,373.122 L45.575,373.075 C41.009,372.29 38.498,368.425 38.299,363.991 z" fill="#607D8B"/>
        </g>
        <text transform="matrix(1, 0, 0, 1, 114.576, 367.634)">
          <tspan x="-42.985" y="5" font-family="Verdana" font-size="14" fill="#607D8B">Copy</tspan>
        </text>
      </g>
      <g>
        <path d="M56.118,402.028 L36.118,402.028 L36.118,399.171 L56.118,399.171 L56.118,402.028 z" fill="#607D8B"/>
        <text transform="matrix(1, 0, 0, 1, 101.246, 399.174)">
          <tspan x="-29.655" y="5" font-family="Verdana" font-size="14" fill="#607D8B">Delete</tspan>
        </text>
      </g>
      <g>
        <path d="M36.118,592.631 L36.118,594.853 L42.785,594.853 L42.785,592.631 L36.118,592.631 z M36.118,579.298 L36.118,581.52 L47.229,581.52 L47.229,579.298 L36.118,579.298 z M47.229,597.076 L47.229,594.853 L56.118,594.853 L56.118,592.631 L47.229,592.631 L47.229,590.409 L45.007,590.409 L45.007,597.076 L47.229,597.076 z M40.563,583.742 L40.563,585.965 L36.118,585.965 L36.118,588.187 L40.563,588.187 L40.563,590.409 L42.785,590.409 L42.785,583.742 L40.563,583.742 z M56.118,588.187 L56.118,585.965 L45.007,585.965 L45.007,588.187 L56.118,588.187 z M49.452,583.742 L51.674,583.742 L51.674,581.52 L56.118,581.52 L56.118,579.298 L51.674,579.298 L51.674,577.076 L49.452,577.076 L49.452,583.742 z" fill="#607D8B"/>
        <text transform="matrix(1, 0, 0, 1, 105.451, 585.651)">
          <tspan x="-33.859" y="5" font-family="Verdana" font-size="14" fill="#607D8B">Property</tspan>
        </text>
      </g>
      <g>
        <path d="M54.118,543.794 L38.118,543.794 C37.018,543.794 36.118,544.694 36.118,545.794 L36.118,561.794 C36.118,562.894 37.018,563.794 38.118,563.794 L54.118,563.794 C55.218,563.794 56.118,562.894 56.118,561.794 L56.118,545.794 C56.118,544.694 55.218,543.794 54.118,543.794 z M42.118,561.794 L38.118,561.794 L38.118,557.794 L42.118,557.794 L42.118,561.794 z M42.118,555.794 L38.118,555.794 L38.118,551.794 L42.118,551.794 L42.118,555.794 z M42.118,549.794 L38.118,549.794 L38.118,545.794 L42.118,545.794 L42.118,549.794 z M48.118,561.794 L44.118,561.794 L44.118,557.794 L48.118,557.794 L48.118,561.794 z M48.118,555.794 L44.118,555.794 L44.118,551.794 L48.118,551.794 L48.118,555.794 z M48.118,549.794 L44.118,549.794 L44.118,545.794 L48.118,545.794 L48.118,549.794 z M54.118,561.794 L50.118,561.794 L50.118,557.794 L54.118,557.794 L54.118,561.794 z M54.118,555.794 L50.118,555.794 L50.118,551.794 L54.118,551.794 L54.118,555.794 z M54.118,549.794 L50.118,549.794 L50.118,545.794 L54.118,545.794 L54.118,549.794 z" fill="#607D8B"/>
        <text transform="matrix(1, 0, 0, 1, 135.331, 552.369)">
          <tspan x="-63.739" y="5" font-family="Verdana" font-size="14" fill="#607D8B">Snap to Grid</tspan>
        </text>
      </g>
      <g>
        <path d="M40.636,240.197 L40.636,247.771 L51.453,247.771 L51.453,240.197 L51.459,240.197 L55.519,244.256 C55.903,244.638 56.118,245.158 56.118,245.701 L56.118,258.834 C56.118,259.586 55.508,260.197 54.756,260.196 L37.481,260.196 C36.729,260.197 36.118,259.586 36.118,258.834 L36.118,241.559 C36.118,240.807 36.729,240.197 37.481,240.197 L40.636,240.197 z M52.436,252.325 L39.933,252.325 L39.933,257.666 L52.436,257.666 L52.436,252.325 z" fill="#607D8B"/>
        <path d="M46.9,240.197 L49.802,240.197 L49.802,246.297 L46.9,246.297 z" fill="#607D8B"/>
      </g>
      <text transform="matrix(1, 0, 0, 1, 110.345, 248.772)">
        <tspan x="-38.754" y="5" font-family="Verdana" font-size="14" fill="#607D8B">Save</tspan>
      </text>
      <g>
        <path d="M46.118,270.145 C40.588,270.145 36.118,274.615 36.118,280.145 C36.118,285.675 40.588,290.145 46.118,290.145 C51.648,290.145 56.118,285.675 56.118,280.145 C56.118,274.615 51.648,270.145 46.118,270.145 z M51.118,283.735 L49.708,285.145 L46.118,281.555 L42.528,285.145 L41.118,283.735 L44.708,280.145 L41.118,276.555 L42.528,275.145 L46.118,278.735 L49.708,275.145 L51.118,276.555 L47.528,280.145 L51.118,283.735 z" fill="#607D8B"/>
        <text transform="matrix(1, 0, 0, 1, 106.527, 278.72)">
          <tspan x="-34.936" y="5" font-family="Verdana" font-size="14" fill="#607D8B">Cancel</tspan>
        </text>
      </g>
    </g>
    <text transform="matrix(1, 0, 0, 1, 154.161, 81.671)">
      <tspan x="-118.804" y="-4.5" font-family="Verdana" font-size="11" fill="#607D8B">If the list is empty, you need to add a </tspan>
      <tspan x="-118.804" y="8.5" font-family="Verdana" font-size="11" fill="#607D8B">screen in the "System structure"</tspan>
    </text>
    <text transform="matrix(1, 0, 0, 1, 152.922, 55.075)">
      <tspan x="-117.565" y="5" font-family="Verdana" font-size="14" fill="#607D8B">Press for select screen</tspan>
    </text>
    <path d="M123.553,27.535 L129.307,27.535 L129.307,36.165 L137.937,36.165 L137.937,27.535 L143.69,27.535 L133.622,17.466 L123.553,27.535 z" fill="#EC6B33"/>
  </g>
</svg>
